<svg xmlns="http://www.w3.org/2000/svg" width="30" height="20" viewBox="0 0 30 20" role="img" aria-label="United Kingdom">
  <rect width="30" height="20" fill="#012169" />
  <polygon points="0,0 3.4,0 30,16.6 30,20 26.6,20 0,3.4" fill="#ffffff" />
  <polygon points="30,0 26.6,0 0,16.6 0,20 3.4,20 30,3.4" fill="#ffffff" />
  <polygon points="0,0 1.8,0 30,18.2 30,20 28.2,20 0,1.8" fill="#c8102e" />
  <polygon points="30,0 28.2,0 0,18.2 0,20 1.8,20 30,1.8" fill="#c8102e" />
  <rect x="12" width="6" height="20" fill="#ffffff" />
  <rect y="7" width="30" height="6" fill="#ffffff" />
  <rect x="13" width="4" height="20" fill="#c8102e" />
  <rect y="8" width="30" height="4" fill="#c8102e" />
</svg>
